PathFileType	4	(X/Y/Z)	C:\Vicon\SynologyDrive\Alex P\Athlete_3\Athlete_3_22_07_06\static_01\marker_experimental.trc																																																																																																																																																																																																																																											
DataRate	CameraRate	NumFrames	NumMarkers	Units	OrigDataRate	OrigDataStartFrame	OrigNumFrames																																																																																																																																																																																																																																							
200	200	4	79	mm	200	433	693																																																																																																																																																																																																																																							
Frame#	Time	GLAB			RFHD			LFHD			C7			T6			SPINMOL			SPINM2			SPINM3			T12			BELTOL			BELT2			BELT3			SACROL			SACR2			SACR3			LASI			RASI			LPSI			RPSI			LTHOL			LTH2			LTH3			LKNEL			LKNEM			LFIB			LSHAOL			LSHA2			LSHA3			LMALL			LMALM			LHEE			LTOE			LM5			RTHOL			RTH2			RTH3			RKNEL			RKNEM			RFIB			RSHAOL			RSHA2			RSHA3			RMALL			RMALM			RHEE			RTOE			RM5			STRN			XIPH			LACR			LUAOL			LUA2			LUA3			LCUBL			LCUBM			LLAOL			LLA2			LLA3			LWRR			LWRU			RACR			RUAOL			RUA2			RUA3			RCUBL			RCUBM			RLAOL			RLA2			RLA3			RWRR			RWRU			Bar:BL			Bar:BR			LKJCWK			RKJCWK			RAJCWK			LAJCWK			RHJCWK			LHJCWK		
		X1	Y1	Z1	X2	Y2	Z2	X3	Y3	Z3	X4	Y4	Z4	X5	Y5	Z5	X6	Y6	Z6	X7	Y7	Z7	X8	Y8	Z8	X9	Y9	Z9	X10	Y10	Z10	X11	Y11	Z11	X12	Y12	Z12	X13	Y13	Z13	X14	Y14	Z14	X15	Y15	Z15	X16	Y16	Z16	X17	Y17	Z17	X18	Y18	Z18	X19	Y19	Z19	X20	Y20	Z20	X21	Y21	Z21	X22	Y22	Z22	X23	Y23	Z23	X24	Y24	Z24	X25	Y25	Z25	X26	Y26	Z26	X27	Y27	Z27	X28	Y28	Z28	X29	Y29	Z29	X30	Y30	Z30	X31	Y31	Z31	X32	Y32	Z32	X33	Y33	Z33	X34	Y34	Z34	X35	Y35	Z35	X36	Y36	Z36	X37	Y37	Z37	X38	Y38	Z38	X39	Y39	Z39	X40	Y40	Z40	X41	Y41	Z41	X42	Y42	Z42	X43	Y43	Z43	X44	Y44	Z44	X45	Y45	Z45	X46	Y46	Z46	X47	Y47	Z47	X48	Y48	Z48	X49	Y49	Z49	X50	Y50	Z50	X51	Y51	Z51	X52	Y52	Z52	X53	Y53	Z53	X54	Y54	Z54	X55	Y55	Z55	X56	Y56	Z56	X57	Y57	Z57	X58	Y58	Z58	X59	Y59	Z59	X60	Y60	Z60	X61	Y61	Z61	X62	Y62	Z62	X63	Y63	Z63	X64	Y64	Z64	X65	Y65	Z65	X66	Y66	Z66	X67	Y67	Z67	X68	Y68	Z68	X69	Y69	Z69	X70	Y70	Z70	X71	Y71	Z71	X72	Y72	Z72	X73	Y73	Z73	X74	Y74	Z74	X75	Y75	Z75	X76	Y76	Z76	X77	Y77	Z77	X78	Y78	Z78	X79	Y79	Z79
																																																																																																																																																																																																																																														
434	2.165	355.4516296	1572.597534	-1216.224854	296.8754272	1587.884644	-1139.647217	292.476532	1588.270386	-1291.769897	131.00914	1448.698364	-1212.474365	77.41827393	1243.639648	-1227.032104	73.23710632	1211.335083	-1231.198486	68.5297699	1150.495728	-1179.246582	78.05505371	1149.568604	-1228.075684	91.40153503	1108.891357	-1226.797119	68.13043976	1086.34436	-1226.042114	69.66272736	1026.779419	-1172.905884	62.06288528	1024.548462	-1222.509766	73.06788635	975.336731	-1247.869263	80.20302582	984.9382324	-1198.088867	49.61745453	926.9612427	-1209.302368	289.0289307	942.6650391	-1336.568359	293.2488708	942.328064	-1109.047363	84.63319397	991.2943726	-1259.671021	85.4415741	990.0626831	-1170.542236	202.9190674	737.5355225	-1443.893799	153.6890564	676.9708862	-1426.955688	202.0054474	675.5349121	-1440.964966	193.3235931	497.8719482	-1427.217773	216.7942352	466.0848694	-1283.446777	153.1290283	442.3052673	-1428.254761	145.3658447	326.2738037	-1449.832275	102.0739975	260.309906	-1444.464355	151.4249268	264.3979797	-1450.069336	126.1859589	85.37007141	-1434.080444	169.4528961	96.25845337	-1350.439087	78.45707703	38.94031143	-1374.784668	289.6769104	47.30828857	-1391.227173	238.5750732	32.12021255	-1492.137817	175.839325	708.187561	-1006.290039	207.1549835	635.9283447	-992.6728516	161.3750458	647.5731201	-1009.466919	161.1952209	496.852417	-1013.838135	209.3828583	461.4716492	-1151.644897	117.1343079	442.4855957	-1015.335999	91.79492188	323.2663879	-998.5269165	131.2553101	256.0037842	-983.1813354	85.21121216	262.1716309	-1002.347351	90.08896637	86.77118683	-1016.80249	153.0820923	96.99085236	-1084.295044	58.05222321	38.25011444	-1077.67749	261.6016846	43.20183182	-1022.269165	202.351944	40.96274948	-937.2218628	280.2554016	1366.34314	-1224.871338	318.1303711	1208.827881	-1226.790161	141.2951965	1412.362305	-1400.630005	129.2919617	1347.034668	-1514.013794	120.2311554	1296.644653	-1556.542969	154.2497559	1332.271118	-1573.478394	166.2497253	1295.014282	-1681.904297	188.7784119	1208.969727	-1631.88562	195.440033	1263.204956	-1767.554077	201.3368378	1226.765869	-1821.901733	239.9941559	1258.158936	-1815.498047	309.5266418	1186.679443	-1860.64978	252.264267	1208.738892	-1903.37915	158.2506104	1402.084595	-1041.932739	168.6557465	1335.264771	-909.4975586	218.7320862	1326.672607	-866.468811	173.5496063	1315.445801	-845.9807739	166.0172424	1288.890015	-795.4689941	222.0169983	1195.468262	-808.9765015	223.4916992	1271.305908	-672.9283447	274.2522278	1259.671143	-633.0801392	229.3672791	1246.927734	-612.8798828	311.960144	1179.846191	-579.9803467	245.6934357	1211.988647	-543.6391602	1512.081055	1285.463623	-2307.397949	1540.653198	1283.405884	0	205.0589	481.9784	-1355.3323	185.289	479.162	-1082.7415	119.8657	81.4255	-1049.6797	146.2727	80.244	-1393.2576	233.6506	873.6288	-1139.361	230.592	873.873	-1304.269
435	2.17	355.4057312	1572.615479	-1216.228638	296.815094	1587.905884	-1139.654053	292.4440918	1588.281128	-1291.772827	131.0067902	1448.697632	-1212.475952	77.41466522	1243.642212	-1227.0448	73.22286224	1211.341797	-1231.214966	68.52039337	1150.49646	-1179.256592	78.0348587	1149.574585	-1228.091919	91.39309692	1108.892334	-1226.802734	68.11823273	1086.343262	-1226.055054	69.65454865	1026.773926	-1172.9198	62.05512619	1024.546021	-1222.513306	73.02632904	975.3740845	-1247.910522	80.11787415	984.9709473	-1198.124878	49.61065292	926.9553223	-1209.297119	289.0250854	942.6616211	-1336.57019	293.2430725	942.3312378	-1109.047363	84.60276794	991.3028564	-1259.685425	85.43551636	990.0588989	-1170.559814	202.9340515	737.5333252	-1443.893921	153.6835327	676.9632568	-1426.956665	202.0710602	675.6303711	-1441.2323	193.3421021	497.8711853	-1427.226563	216.8963623	466.1017151	-1283.209595	153.1397858	442.3051147	-1428.260986	145.3680115	326.2707825	-1449.828735	102.076973	260.3136597	-1444.46167	151.4250793	264.3933411	-1450.070679	126.1927567	85.37043762	-1434.086792	169.4588165	96.25798035	-1350.436768	78.45310974	38.93812561	-1374.788086	289.6855774	47.31159592	-1391.227783	238.5767517	32.12132263	-1492.139526	175.8253326	708.1860352	-1006.294189	207.1557922	635.9376221	-992.6704102	161.3585815	647.5761719	-1009.463623	161.1862335	496.8562622	-1013.833557	209.4003448	461.4708252	-1151.654663	117.1271286	442.4895325	-1015.335022	91.80225372	323.2841492	-998.5249023	131.2659302	256.0202332	-983.1881104	85.20881653	262.1830139	-1002.348938	90.08931732	86.76924133	-1016.803711	153.0824738	96.99279785	-1084.297363	58.05786133	38.24277115	-1077.684814	261.6064453	43.2006073	-1022.260681	202.354538	40.96556473	-937.2235107	280.2529907	1366.358276	-1224.869873	318.1315308	1208.839966	-1226.780029	141.3135376	1412.385864	-1400.635986	129.2994995	1347.047363	-1514.016479	120.2282791	1296.648315	-1556.526978	154.2438965	1332.261841	-1573.474609	166.227005	1294.983765	-1681.900635	188.7653198	1208.955444	-1631.86853	195.3565674	1263.240967	-1767.436035	201.3131714	1226.740601	-1821.898804	239.9577332	1258.143311	-1815.498657	309.5117798	1186.666138	-1860.647583	252.2344971	1208.701782	-1903.366577	158.2442322	1402.092285	-1041.93335	168.561264	1335.217041	-909.4153442	218.7064362	1326.657593	-866.4787598	173.5321503	1315.442993	-845.9815063	166.0076141	1288.888306	-795.4603882	221.9959106	1195.466064	-808.9790649	223.456665	1271.28125	-672.8362427	274.1409607	1259.77063	-633.2125244	229.3489685	1246.923584	-612.859375	311.9379883	1179.82251	-579.9902344	245.672699	1211.971313	-543.6325073	1512.069336	1285.460938	-2307.392334	1540.654175	1283.406494	0	205.1192	481.9865	-1355.2181	185.2933	479.1635	-1082.7441	119.866	81.4255	-1049.6814	146.2777	80.2445	-1393.2627	233.6454	873.6309	-1139.3604	230.5882	873.8703	-1304.268
436	2.175	355.3762512	1572.639038	-1216.214233	296.7580566	1587.90564	-1139.651489	292.4024963	1588.295898	-1291.772583	130.9785767	1448.710693	-1212.486816	77.40326691	1243.641113	-1227.056274	73.21151733	1211.339722	-1231.212524	68.50917053	1150.50354	-1179.261841	78.46117401	1149.542847	-1228.110352	91.38162994	1108.890625	-1226.810181	68.11386871	1086.340698	-1226.062622	69.63882446	1026.773804	-1172.927002	62.04254532	1024.541504	-1222.530029	73.0696106	975.3709717	-1247.913818	80.17119598	984.9328003	-1198.074219	49.60015106	926.9369507	-1209.298096	289.0209351	942.6605225	-1336.567749	293.2469482	942.3222046	-1109.050659	84.59398651	991.2942505	-1259.705322	85.4241333	990.0567627	-1170.564941	202.9545898	737.5360107	-1443.89502	153.6974335	676.961731	-1426.949219	202.0438538	675.5362549	-1440.967041	193.3426971	497.8657227	-1427.228027	216.898819	466.1079712	-1283.21521	153.1479645	442.301178	-1428.268311	145.3830261	326.2562866	-1449.815552	102.0754013	260.3125916	-1444.460449	151.4296417	264.3879395	-1450.067627	126.192131	85.36912537	-1434.081665	169.4375458	96.26320648	-1350.439453	78.46362305	38.93756866	-1374.782837	289.6804199	47.31357574	-1391.226074	238.5786896	32.12383652	-1492.142944	175.8162689	708.1864014	-1006.300598	207.1344147	635.9405518	-992.6651001	161.357666	647.5636597	-1009.474609	161.1781006	496.85495	-1013.833313	209.3839722	461.4650574	-1151.643066	117.1220551	442.4864807	-1015.339111	91.82872772	323.2911987	-998.5440674	131.2541351	256.0086975	-983.1812744	85.19593811	262.1838379	-1002.353271	90.09331512	86.76387024	-1016.79895	153.0804291	96.99462128	-1084.29248	58.05767441	38.2453537	-1077.677368	261.6001587	43.20116425	-1022.269958	202.355896	40.96776581	-937.2186279	280.2514343	1366.375366	-1224.869263	318.1268616	1208.849854	-1226.777466	141.3312225	1412.401245	-1400.644775	129.281601	1347.04248	-1514.013794	120.232399	1296.636963	-1556.517456	154.233963	1332.255371	-1573.473389	166.2010498	1294.963013	-1681.892212	188.763031	1208.950562	-1631.86853	195.342514	1263.199341	-1767.412476	201.2956543	1226.704224	-1821.89563	239.9295197	1258.120361	-1815.496216	309.484375	1186.641479	-1860.638794	252.2168274	1208.664795	-1903.356445	158.2370605	1402.093384	-1041.92395	168.6444397	1335.266113	-909.5008545	218.699295	1326.650757	-866.4645996	173.5166321	1315.442993	-845.9812012	165.9888	1288.884277	-795.4654541	221.8699188	1195.346558	-808.986145	223.5325623	1271.151489	-672.9346313	274.1203918	1259.754272	-633.2219238	229.333786	1246.892822	-612.8724976	311.9122009	1179.802979	-579.9936523	245.6542511	1211.964844	-543.6350098	1512.077515	1285.456299	-2307.395752	1540.657227	1283.412476	0	205.1208	481.9868	-1355.2216	185.281	479.16	-1082.7382	119.8673	81.4237	-1049.6766	146.2664	80.2465	-1393.2614	233.6489	873.6222	-1139.3612	230.5859	873.8674	-1304.269
437	2.18	355.34729	1572.660889	-1216.213867	296.7047424	1587.907959	-1139.65332	292.3766479	1588.306274	-1291.7771	130.9558563	1448.712524	-1212.485474	77.39536285	1243.64856	-1227.051025	73.20868683	1211.3396	-1231.223267	68.49833679	1150.502441	-1179.266724	78.45670319	1149.547363	-1228.115356	91.38217163	1108.891357	-1226.825073	68.10517883	1086.336426	-1226.075073	69.63664246	1026.771973	-1172.945313	62.04310608	1024.534912	-1222.537231	73.03562164	975.340271	-1247.930786	80.08581543	984.9694214	-1198.14502	49.59324646	926.9338989	-1209.324097	289.0270996	942.6651001	-1336.56958	293.2267456	942.3353882	-1109.043823	84.59825897	991.2955322	-1259.710205	85.407341	990.0571289	-1170.572998	202.968277	737.5343018	-1443.902832	153.719101	676.9685669	-1426.952881	202.0437469	675.534729	-1440.955688	193.3522339	497.8644714	-1427.237061	216.8216858	466.0794373	-1283.467651	153.1551514	442.3041077	-1428.27478	145.3743286	326.2618103	-1449.828491	102.0731049	260.3110962	-1444.45459	151.4275208	264.3890991	-1450.070435	126.1886215	85.36968994	-1434.084839	169.4401703	96.2638855	-1350.440918	78.46305084	38.93611526	-1374.783203	289.6785583	47.31324768	-1391.226196	238.5836182	32.12596893	-1492.142822	175.8090057	708.1885986	-1006.305786	207.1242676	635.9420776	-992.6751709	161.3540497	647.569458	-1009.481018	161.1690521	496.8523254	-1013.829956	209.3895874	461.4640808	-1151.639282	117.1172562	442.48172	-1015.341675	91.78666687	323.2803955	-998.5264282	131.2566223	256.0122681	-983.1795654	85.20661926	262.184906	-1002.352234	90.08905029	86.76355743	-1016.800659	153.0816803	96.99294281	-1084.293213	58.0542984	38.24880981	-1077.683838	261.5924988	43.19510651	-1022.307861	202.3574524	40.96440887	-937.2132568	280.2391357	1366.39563	-1224.862915	318.1212769	1208.858521	-1226.77417	141.3366699	1412.420166	-1400.649902	129.2812958	1347.029419	-1514.023071	120.219368	1296.628906	-1556.504761	154.2383881	1332.248901	-1573.479248	166.1811829	1294.942627	-1681.893066	188.7671967	1208.93103	-1631.852173	195.3409424	1263.177856	-1767.432251	201.2663269	1226.652222	-1821.874878	239.9098511	1258.091431	-1815.496826	309.4793091	1186.621094	-1860.633179	252.1973877	1208.630493	-1903.348145	158.2345276	1402.099976	-1041.921265	168.5849609	1335.259888	-909.4904785	218.7002716	1326.661377	-866.4537354	173.4901123	1315.443481	-845.9790039	165.9770966	1288.872192	-795.4677734	221.8529816	1195.344604	-808.9902344	223.4280396	1271.262207	-672.8223877	274.1096497	1259.732544	-633.2133179	229.2536163	1246.999512	-612.8258057	311.8934021	1179.7771	-579.9933472	245.6361542	1211.951904	-543.6392212	1512.080566	1285.451294	-2307.402832	1540.649658	1283.404785	0	205.087	481.972	-1355.3524	185.2793	479.1582	-1082.7346	119.8658	81.4227	-1049.678	146.2667	80.2466	-1393.2603	233.6347	873.6321	-1139.3629	230.5909	873.8711	-1304.271
